<?xml version="1.0" encoding="UTF-8" standalone="no"?><svg xmlns="http://www.w3.org/2000/svg" xmlns:xlink="http://www.w3.org/1999/xlink" contentScriptType="application/ecmascript" contentStyleType="text/css" height="365px" preserveAspectRatio="none" style="width:622px;height:365px;" version="1.1" viewBox="0 0 622 365" width="622px" zoomAndPan="magnify"><defs><filter height="300%" id="f1evm3814b3zg6" width="300%" x="-1" y="-1"><feGaussianBlur result="blurOut" stdDeviation="2.0"/><feColorMatrix in="blurOut" result="blurOut2" type="matrix" values="0 0 0 0 0 0 0 0 0 0 0 0 0 0 0 0 0 0 .4 0"/><feOffset dx="4.0" dy="4.0" in="blurOut2" result="blurOut3"/><feBlend in="SourceGraphic" in2="blurOut3" mode="normal"/></filter></defs><g><!--MD5=[601a34f83cc5fbc2aa3a26b4da7cabc1]
class GeoZone--><rect codeLine="5" fill="#FEFECE" filter="url(#f1evm3814b3zg6)" height="78.4141" id="GeoZone" style="stroke:#A80036;stroke-width:1.5;" width="139" x="7" y="127"/><ellipse cx="44.5" cy="143" fill="#ADD1B2" rx="11" ry="11" style="stroke:#A80036;stroke-width:1.0;"/><path d="M46.8438,138.6719 C45.9063,138.2344 45.3125,138.0938 44.4375,138.0938 C41.8125,138.0938 39.8125,140.1719 39.8125,142.8906 L39.8125,144.0156 C39.8125,146.5938 41.9219,148.4844 44.8125,148.4844 C46.0313,148.4844 47.1875,148.1875 47.9375,147.6406 C48.5156,147.2344 48.8438,146.7813 48.8438,146.3906 C48.8438,145.9375 48.4531,145.5469 47.9844,145.5469 C47.7656,145.5469 47.5625,145.625 47.375,145.8125 C46.9219,146.2969 46.9219,146.2969 46.7344,146.3906 C46.3125,146.6563 45.625,146.7813 44.8594,146.7813 C42.8125,146.7813 41.5156,145.6875 41.5156,143.9844 L41.5156,142.8906 C41.5156,141.1094 42.7656,139.7969 44.5,139.7969 C45.0781,139.7969 45.6875,139.9531 46.1563,140.2031 C46.6406,140.4844 46.8125,140.7031 46.9063,141.1094 C46.9688,141.5156 47,141.6406 47.1406,141.7656 C47.2813,141.9063 47.5156,142.0156 47.7344,142.0156 C48,142.0156 48.2656,141.875 48.4375,141.6563 C48.5469,141.5 48.5781,141.3125 48.5781,140.8906 L48.5781,139.4688 C48.5781,139.0313 48.5625,138.9063 48.4688,138.75 C48.3125,138.4844 48.0313,138.3438 47.7344,138.3438 C47.4375,138.3438 47.2344,138.4375 47.0156,138.75 L46.8438,138.6719 Z " fill="#000000"/><text fill="#000000" font-family="sans-serif" font-size="12" lengthAdjust="spacingAndGlyphs" textLength="57" x="63.5" y="147.1543">GeoZone</text><line style="stroke:#A80036;stroke-width:1.5;" x1="8" x2="145" y1="159" y2="159"/><text fill="#000000" font-family="sans-serif" font-size="11" lengthAdjust="spacingAndGlyphs" textLength="98" x="13" y="173.2104">-long GeoZoneID</text><text fill="#000000" font-family="sans-serif" font-size="11" lengthAdjust="spacingAndGlyphs" textLength="127" x="13" y="186.0151">-string GeoZoneName</text><text fill="#000000" font-family="sans-serif" font-size="11" lengthAdjust="spacingAndGlyphs" textLength="87" x="13" y="198.8198">-list CountryList</text><!--MD5=[deb4e1f6eb1e3c1256fdb830f96abfbb]
class Country--><rect codeLine="11" fill="#FEFECE" filter="url(#f1evm3814b3zg6)" height="78.4141" id="Country" style="stroke:#A80036;stroke-width:1.5;" width="129" x="256" y="7"/><ellipse cx="293.95" cy="23" fill="#ADD1B2" rx="11" ry="11" style="stroke:#A80036;stroke-width:1.0;"/><path d="M296.2938,18.6719 C295.3563,18.2344 294.7625,18.0938 293.8875,18.0938 C291.2625,18.0938 289.2625,20.1719 289.2625,22.8906 L289.2625,24.0156 C289.2625,26.5938 291.3719,28.4844 294.2625,28.4844 C295.4813,28.4844 296.6375,28.1875 297.3875,27.6406 C297.9656,27.2344 298.2938,26.7813 298.2938,26.3906 C298.2938,25.9375 297.9031,25.5469 297.4344,25.5469 C297.2156,25.5469 297.0125,25.625 296.825,25.8125 C296.3719,26.2969 296.3719,26.2969 296.1844,26.3906 C295.7625,26.6563 295.075,26.7813 294.3094,26.7813 C292.2625,26.7813 290.9656,25.6875 290.9656,23.9844 L290.9656,22.8906 C290.9656,21.1094 292.2156,19.7969 293.95,19.7969 C294.5281,19.7969 295.1375,19.9531 295.6063,20.2031 C296.0906,20.4844 296.2625,20.7031 296.3563,21.1094 C296.4188,21.5156 296.45,21.6406 296.5906,21.7656 C296.7313,21.9063 296.9656,22.0156 297.1844,22.0156 C297.45,22.0156 297.7156,21.875 297.8875,21.6563 C297.9969,21.5 298.0281,21.3125 298.0281,20.8906 L298.0281,19.4688 C298.0281,19.0313 298.0125,18.9063 297.9188,18.75 C297.7625,18.4844 297.4813,18.3438 297.1844,18.3438 C296.8875,18.3438 296.6844,18.4375 296.4656,18.75 L296.2938,18.6719 Z " fill="#000000"/><text fill="#000000" font-family="sans-serif" font-size="12" lengthAdjust="spacingAndGlyphs" textLength="46" x="313.05" y="27.1543">Country</text><line style="stroke:#A80036;stroke-width:1.5;" x1="257" x2="384" y1="39" y2="39"/><text fill="#000000" font-family="sans-serif" font-size="11" lengthAdjust="spacingAndGlyphs" textLength="88" x="262" y="53.2104">-long CountryID</text><text fill="#000000" font-family="sans-serif" font-size="11" lengthAdjust="spacingAndGlyphs" textLength="117" x="262" y="66.0151">-string CountryName</text><text fill="#000000" font-family="sans-serif" font-size="11" lengthAdjust="spacingAndGlyphs" textLength="98" x="262" y="78.8198">-long GeoZoneID</text><!--MD5=[403352b52504da1da942811d56b7f793]
class Recom--><rect codeLine="17" fill="#FEFECE" filter="url(#f1evm3814b3zg6)" height="91.2188" id="Recom" style="stroke:#A80036;stroke-width:1.5;" width="153" x="244" y="120.5"/><ellipse cx="295.75" cy="136.5" fill="#ADD1B2" rx="11" ry="11" style="stroke:#A80036;stroke-width:1.0;"/><path d="M298.0938,132.1719 C297.1563,131.7344 296.5625,131.5938 295.6875,131.5938 C293.0625,131.5938 291.0625,133.6719 291.0625,136.3906 L291.0625,137.5156 C291.0625,140.0938 293.1719,141.9844 296.0625,141.9844 C297.2813,141.9844 298.4375,141.6875 299.1875,141.1406 C299.7656,140.7344 300.0938,140.2813 300.0938,139.8906 C300.0938,139.4375 299.7031,139.0469 299.2344,139.0469 C299.0156,139.0469 298.8125,139.125 298.625,139.3125 C298.1719,139.7969 298.1719,139.7969 297.9844,139.8906 C297.5625,140.1563 296.875,140.2813 296.1094,140.2813 C294.0625,140.2813 292.7656,139.1875 292.7656,137.4844 L292.7656,136.3906 C292.7656,134.6094 294.0156,133.2969 295.75,133.2969 C296.3281,133.2969 296.9375,133.4531 297.4063,133.7031 C297.8906,133.9844 298.0625,134.2031 298.1563,134.6094 C298.2188,135.0156 298.25,135.1406 298.3906,135.2656 C298.5313,135.4063 298.7656,135.5156 298.9844,135.5156 C299.25,135.5156 299.5156,135.375 299.6875,135.1563 C299.7969,135 299.8281,134.8125 299.8281,134.3906 L299.8281,132.9688 C299.8281,132.5313 299.8125,132.4063 299.7188,132.25 C299.5625,131.9844 299.2813,131.8438 298.9844,131.8438 C298.6875,131.8438 298.4844,131.9375 298.2656,132.25 L298.0938,132.1719 Z " fill="#000000"/><text fill="#000000" font-family="sans-serif" font-size="12" lengthAdjust="spacingAndGlyphs" textLength="41" x="316.25" y="140.6543">Recom</text><line style="stroke:#A80036;stroke-width:1.5;" x1="245" x2="396" y1="152.5" y2="152.5"/><text fill="#000000" font-family="sans-serif" font-size="11" lengthAdjust="spacingAndGlyphs" textLength="83" x="250" y="166.7104">-long RecomID</text><text fill="#000000" font-family="sans-serif" font-size="11" lengthAdjust="spacingAndGlyphs" textLength="98" x="250" y="179.5151">-long GeoZoneID</text><text fill="#000000" font-family="sans-serif" font-size="11" lengthAdjust="spacingAndGlyphs" textLength="141" x="250" y="192.3198">-DateTime CreationDate</text><text fill="#000000" font-family="sans-serif" font-size="11" lengthAdjust="spacingAndGlyphs" textLength="106" x="250" y="205.1245">-int ExpirationDate</text><!--MD5=[c4a60b9527ef61a4e8dfb781c35ab47e]
class Outbreak--><rect codeLine="24" fill="#FEFECE" filter="url(#f1evm3814b3zg6)" height="104.0234" id="Outbreak" style="stroke:#A80036;stroke-width:1.5;" width="132" x="254.5" y="247"/><ellipse cx="289.3" cy="263" fill="#ADD1B2" rx="11" ry="11" style="stroke:#A80036;stroke-width:1.0;"/><path d="M291.6438,258.6719 C290.7063,258.2344 290.1125,258.0938 289.2375,258.0938 C286.6125,258.0938 284.6125,260.1719 284.6125,262.8906 L284.6125,264.0156 C284.6125,266.5938 286.7219,268.4844 289.6125,268.4844 C290.8313,268.4844 291.9875,268.1875 292.7375,267.6406 C293.3156,267.2344 293.6438,266.7813 293.6438,266.3906 C293.6438,265.9375 293.2531,265.5469 292.7844,265.5469 C292.5656,265.5469 292.3625,265.625 292.175,265.8125 C291.7219,266.2969 291.7219,266.2969 291.5344,266.3906 C291.1125,266.6563 290.425,266.7813 289.6594,266.7813 C287.6125,266.7813 286.3156,265.6875 286.3156,263.9844 L286.3156,262.8906 C286.3156,261.1094 287.5656,259.7969 289.3,259.7969 C289.8781,259.7969 290.4875,259.9531 290.9563,260.2031 C291.4406,260.4844 291.6125,260.7031 291.7063,261.1094 C291.7688,261.5156 291.8,261.6406 291.9406,261.7656 C292.0813,261.9063 292.3156,262.0156 292.5344,262.0156 C292.8,262.0156 293.0656,261.875 293.2375,261.6563 C293.3469,261.5 293.3781,261.3125 293.3781,260.8906 L293.3781,259.4688 C293.3781,259.0313 293.3625,258.9063 293.2688,258.75 C293.1125,258.4844 292.8313,258.3438 292.5344,258.3438 C292.2375,258.3438 292.0344,258.4375 291.8156,258.75 L291.6438,258.6719 Z " fill="#000000"/><text fill="#000000" font-family="sans-serif" font-size="12" lengthAdjust="spacingAndGlyphs" textLength="56" x="307.7" y="267.1543">Outbreak</text><line style="stroke:#A80036;stroke-width:1.5;" x1="255.5" x2="385.5" y1="279" y2="279"/><text fill="#000000" font-family="sans-serif" font-size="11" lengthAdjust="spacingAndGlyphs" textLength="96" x="260.5" y="293.2104">-long OutbreakID</text><text fill="#000000" font-family="sans-serif" font-size="11" lengthAdjust="spacingAndGlyphs" textLength="72" x="260.5" y="306.0151">-long VirusID</text><text fill="#000000" font-family="sans-serif" font-size="11" lengthAdjust="spacingAndGlyphs" textLength="98" x="260.5" y="318.8198">-long GeoZoneID</text><text fill="#000000" font-family="sans-serif" font-size="11" lengthAdjust="spacingAndGlyphs" textLength="120" x="260.5" y="331.6245">-DateTime StartDate</text><text fill="#000000" font-family="sans-serif" font-size="11" lengthAdjust="spacingAndGlyphs" textLength="120" x="260.5" y="344.4292">-DateTime? EndDate</text><!--MD5=[583949b48bb58d687b700008f98c6a20]
class Virus--><rect codeLine="32" fill="#FEFECE" filter="url(#f1evm3814b3zg6)" height="65.6094" id="Virus" style="stroke:#A80036;stroke-width:1.5;" width="113" x="495" y="266"/><ellipse cx="532.95" cy="282" fill="#ADD1B2" rx="11" ry="11" style="stroke:#A80036;stroke-width:1.0;"/><path d="M535.2938,277.6719 C534.3563,277.2344 533.7625,277.0938 532.8875,277.0938 C530.2625,277.0938 528.2625,279.1719 528.2625,281.8906 L528.2625,283.0156 C528.2625,285.5938 530.3719,287.4844 533.2625,287.4844 C534.4813,287.4844 535.6375,287.1875 536.3875,286.6406 C536.9656,286.2344 537.2938,285.7813 537.2938,285.3906 C537.2938,284.9375 536.9031,284.5469 536.4344,284.5469 C536.2156,284.5469 536.0125,284.625 535.825,284.8125 C535.3719,285.2969 535.3719,285.2969 535.1844,285.3906 C534.7625,285.6563 534.075,285.7813 533.3094,285.7813 C531.2625,285.7813 529.9656,284.6875 529.9656,282.9844 L529.9656,281.8906 C529.9656,280.1094 531.2156,278.7969 532.95,278.7969 C533.5281,278.7969 534.1375,278.9531 534.6063,279.2031 C535.0906,279.4844 535.2625,279.7031 535.3563,280.1094 C535.4188,280.5156 535.45,280.6406 535.5906,280.7656 C535.7313,280.9063 535.9656,281.0156 536.1844,281.0156 C536.45,281.0156 536.7156,280.875 536.8875,280.6563 C536.9969,280.5 537.0281,280.3125 537.0281,279.8906 L537.0281,278.4688 C537.0281,278.0313 537.0125,277.9063 536.9188,277.75 C536.7625,277.4844 536.4813,277.3438 536.1844,277.3438 C535.8875,277.3438 535.6844,277.4375 535.4656,277.75 L535.2938,277.6719 Z " fill="#000000"/><text fill="#000000" font-family="sans-serif" font-size="12" lengthAdjust="spacingAndGlyphs" textLength="30" x="552.05" y="286.1543">Virus</text><line style="stroke:#A80036;stroke-width:1.5;" x1="496" x2="607" y1="298" y2="298"/><text fill="#000000" font-family="sans-serif" font-size="11" lengthAdjust="spacingAndGlyphs" textLength="72" x="501" y="312.2104">-long VirusID</text><text fill="#000000" font-family="sans-serif" font-size="11" lengthAdjust="spacingAndGlyphs" textLength="101" x="501" y="325.0151">-string VirusName</text><!--MD5=[0b07100ac9b6dcca6fcc89cea1944e85]
link GeoZone to Country--><path codeLine="37" d="M146.2,131.934 C180.576,114.888 221.925,94.384 255.611,77.681 " fill="none" id="GeoZone-Country" style="stroke:#A80036;stroke-width:1.0;"/><polygon fill="#000000" points="185.4795,88.3452,176.0704,89.7304,178.6816,94.9964,185.4795,88.3452" style="stroke:#000000;stroke-width:1.0;"/><text fill="#000000" font-family="sans-serif" font-size="13" lengthAdjust="spacingAndGlyphs" textLength="23" x="190" y="95.0669">has</text><text fill="#000000" font-family="sans-serif" font-size="13" lengthAdjust="spacingAndGlyphs" textLength="8" x="153.8003" y="141.2468">1</text><text fill="#000000" font-family="sans-serif" font-size="13" lengthAdjust="spacingAndGlyphs" textLength="27" x="220.8946" y="93.5909">1...*</text><!--MD5=[d94041cad978db009e10bdaa6f74568f]
link GeoZone to Recom--><path codeLine="38" d="M146.2,166 C176.663,166 212.602,166 243.832,166 " fill="none" id="GeoZone-Recom" style="stroke:#A80036;stroke-width:1.0;"/><polygon fill="#000000" points="186,157.5664,176.9549,154.6275,176.9549,160.5053,186,157.5664" style="stroke:#000000;stroke-width:1.0;"/><text fill="#000000" font-family="sans-serif" font-size="13" lengthAdjust="spacingAndGlyphs" textLength="23" x="190" y="162.0669">has</text><text fill="#000000" font-family="sans-serif" font-size="13" lengthAdjust="spacingAndGlyphs" textLength="8" x="153.8003" y="178.8258">1</text><text fill="#000000" font-family="sans-serif" font-size="13" lengthAdjust="spacingAndGlyphs" textLength="27" x="209.0832" y="178.7077">1...*</text><!--MD5=[b03bcc838a029db7d61db0c43cf28b09]
link GeoZone to Outbreak--><path codeLine="39" d="M146.2,203.757 C180.156,222.419 220.917,244.82 254.375,263.2081 " fill="none" id="GeoZone-Outbreak" style="stroke:#A80036;stroke-width:1.0;"/><polygon fill="#000000" points="185.3819,213.9746,178.8705,207.0426,176.0395,212.1937,185.3819,213.9746" style="stroke:#000000;stroke-width:1.0;"/><text fill="#000000" font-family="sans-serif" font-size="13" lengthAdjust="spacingAndGlyphs" textLength="23" x="190" y="216.0669">has</text><text fill="#000000" font-family="sans-serif" font-size="13" lengthAdjust="spacingAndGlyphs" textLength="8" x="153.8003" y="220.4765">1</text><text fill="#000000" font-family="sans-serif" font-size="13" lengthAdjust="spacingAndGlyphs" textLength="27" x="219.5369" y="272.4954">1...*</text><!--MD5=[0e150b400a5e2077fb32cbf1e73e8eb6]
link Outbreak to Virus--><path codeLine="41" d="M386.51,299 C420.625,299 461.999,299 494.654,299 " fill="none" id="Outbreak-Virus" style="stroke:#A80036;stroke-width:1.0;"/><polygon fill="#000000" points="437,290.5664,427.9549,287.6275,427.9549,293.5053,437,290.5664" style="stroke:#000000;stroke-width:1.0;"/><text fill="#000000" font-family="sans-serif" font-size="13" lengthAdjust="spacingAndGlyphs" textLength="23" x="441" y="295.0669">has</text><text fill="#000000" font-family="sans-serif" font-size="13" lengthAdjust="spacingAndGlyphs" textLength="8" x="394.6049" y="311.9404">1</text><text fill="#000000" font-family="sans-serif" font-size="13" lengthAdjust="spacingAndGlyphs" textLength="27" x="459.9599" y="311.9158">1...*</text><!--MD5=[798c2e395e0f8ec07ec519e289ceeb31]
@startuml
skinparam classAttributeIconSize 0
hide methods
left to right direction

class GeoZone {
  -long GeoZoneID
  -string GeoZoneName
  -list CountryList
}

class Country {
  -long CountryID
  -string CountryName
  -long GeoZoneID
}

class Recom{
  -long RecomID
  -long GeoZoneID
  -DateTime CreationDate
  -int ExpirationDate
}

class Outbreak {
  -long OutbreakID
  -long VirusID
  -long GeoZoneID
  -DateTime StartDate
  -DateTime? EndDate
}

class Virus {
  -long VirusID
  -string VirusName
}

GeoZone "1" - - "1...*" Country : has >
GeoZone "1" - - "1...*" Recom : has >
GeoZone "1" - - "1...*" Outbreak : has >

Outbreak "1" - - "1...*" Virus : has >
@enduml

PlantUML version 1.2020.24(Fri Dec 18 17:00:36 UTC 2020)
(GPL source distribution)
Java Runtime: Java(TM) SE Runtime Environment
JVM: Java HotSpot(TM) 64-Bit Server VM
Default Encoding: UTF-8
Language: en
Country: US
--></g></svg>