<?xml version="1.0" encoding="UTF-8" standalone="no"?><svg xmlns="http://www.w3.org/2000/svg" xmlns:xlink="http://www.w3.org/1999/xlink" contentScriptType="application/ecmascript" contentStyleType="text/css" height="377px" preserveAspectRatio="none" style="width:622px;height:377px;" version="1.1" viewBox="0 0 622 377" width="622px" zoomAndPan="magnify"><defs><filter height="300%" id="f1qwdm5i8lbdx5" width="300%" x="-1" y="-1"><feGaussianBlur result="blurOut" stdDeviation="2.0"/><feColorMatrix in="blurOut" result="blurOut2" type="matrix" values="0 0 0 0 0 0 0 0 0 0 0 0 0 0 0 0 0 0 .4 0"/><feOffset dx="4.0" dy="4.0" in="blurOut2" result="blurOut3"/><feBlend in="SourceGraphic" in2="blurOut3" mode="normal"/></filter></defs><g><!--MD5=[601a34f83cc5fbc2aa3a26b4da7cabc1]
class GeoZone--><rect codeLine="5" fill="#FEFECE" filter="url(#f1qwdm5i8lbdx5)" height="78.4141" id="GeoZone" style="stroke:#A80036;stroke-width:1.5;" width="139" x="7" y="133"/><ellipse cx="44.5" cy="149" fill="#ADD1B2" rx="11" ry="11" style="stroke:#A80036;stroke-width:1.0;"/><path d="M46.8438,144.6719 C45.9063,144.2344 45.3125,144.0938 44.4375,144.0938 C41.8125,144.0938 39.8125,146.1719 39.8125,148.8906 L39.8125,150.0156 C39.8125,152.5938 41.9219,154.4844 44.8125,154.4844 C46.0313,154.4844 47.1875,154.1875 47.9375,153.6406 C48.5156,153.2344 48.8438,152.7813 48.8438,152.3906 C48.8438,151.9375 48.4531,151.5469 47.9844,151.5469 C47.7656,151.5469 47.5625,151.625 47.375,151.8125 C46.9219,152.2969 46.9219,152.2969 46.7344,152.3906 C46.3125,152.6563 45.625,152.7813 44.8594,152.7813 C42.8125,152.7813 41.5156,151.6875 41.5156,149.9844 L41.5156,148.8906 C41.5156,147.1094 42.7656,145.7969 44.5,145.7969 C45.0781,145.7969 45.6875,145.9531 46.1563,146.2031 C46.6406,146.4844 46.8125,146.7031 46.9063,147.1094 C46.9688,147.5156 47,147.6406 47.1406,147.7656 C47.2813,147.9063 47.5156,148.0156 47.7344,148.0156 C48,148.0156 48.2656,147.875 48.4375,147.6563 C48.5469,147.5 48.5781,147.3125 48.5781,146.8906 L48.5781,145.4688 C48.5781,145.0313 48.5625,144.9063 48.4688,144.75 C48.3125,144.4844 48.0313,144.3438 47.7344,144.3438 C47.4375,144.3438 47.2344,144.4375 47.0156,144.75 L46.8438,144.6719 Z " fill="#000000"/><text fill="#000000" font-family="sans-serif" font-size="12" lengthAdjust="spacingAndGlyphs" textLength="57" x="63.5" y="153.1543">GeoZone</text><line style="stroke:#A80036;stroke-width:1.5;" x1="8" x2="145" y1="165" y2="165"/><text fill="#000000" font-family="sans-serif" font-size="11" lengthAdjust="spacingAndGlyphs" textLength="98" x="13" y="179.2104">-long GeoZoneID</text><text fill="#000000" font-family="sans-serif" font-size="11" lengthAdjust="spacingAndGlyphs" textLength="127" x="13" y="192.0151">-string GeoZoneName</text><text fill="#000000" font-family="sans-serif" font-size="11" lengthAdjust="spacingAndGlyphs" textLength="87" x="13" y="204.8198">-list CountryList</text><!--MD5=[deb4e1f6eb1e3c1256fdb830f96abfbb]
class Country--><rect codeLine="11" fill="#FEFECE" filter="url(#f1qwdm5i8lbdx5)" height="78.4141" id="Country" style="stroke:#A80036;stroke-width:1.5;" width="129" x="256" y="7"/><ellipse cx="293.95" cy="23" fill="#ADD1B2" rx="11" ry="11" style="stroke:#A80036;stroke-width:1.0;"/><path d="M296.2938,18.6719 C295.3563,18.2344 294.7625,18.0938 293.8875,18.0938 C291.2625,18.0938 289.2625,20.1719 289.2625,22.8906 L289.2625,24.0156 C289.2625,26.5938 291.3719,28.4844 294.2625,28.4844 C295.4813,28.4844 296.6375,28.1875 297.3875,27.6406 C297.9656,27.2344 298.2938,26.7813 298.2938,26.3906 C298.2938,25.9375 297.9031,25.5469 297.4344,25.5469 C297.2156,25.5469 297.0125,25.625 296.825,25.8125 C296.3719,26.2969 296.3719,26.2969 296.1844,26.3906 C295.7625,26.6563 295.075,26.7813 294.3094,26.7813 C292.2625,26.7813 290.9656,25.6875 290.9656,23.9844 L290.9656,22.8906 C290.9656,21.1094 292.2156,19.7969 293.95,19.7969 C294.5281,19.7969 295.1375,19.9531 295.6063,20.2031 C296.0906,20.4844 296.2625,20.7031 296.3563,21.1094 C296.4188,21.5156 296.45,21.6406 296.5906,21.7656 C296.7313,21.9063 296.9656,22.0156 297.1844,22.0156 C297.45,22.0156 297.7156,21.875 297.8875,21.6563 C297.9969,21.5 298.0281,21.3125 298.0281,20.8906 L298.0281,19.4688 C298.0281,19.0313 298.0125,18.9063 297.9188,18.75 C297.7625,18.4844 297.4813,18.3438 297.1844,18.3438 C296.8875,18.3438 296.6844,18.4375 296.4656,18.75 L296.2938,18.6719 Z " fill="#000000"/><text fill="#000000" font-family="sans-serif" font-size="12" lengthAdjust="spacingAndGlyphs" textLength="46" x="313.05" y="27.1543">Country</text><line style="stroke:#A80036;stroke-width:1.5;" x1="257" x2="384" y1="39" y2="39"/><text fill="#000000" font-family="sans-serif" font-size="11" lengthAdjust="spacingAndGlyphs" textLength="88" x="262" y="53.2104">-long CountryID</text><text fill="#000000" font-family="sans-serif" font-size="11" lengthAdjust="spacingAndGlyphs" textLength="117" x="262" y="66.0151">-string CountryName</text><text fill="#000000" font-family="sans-serif" font-size="11" lengthAdjust="spacingAndGlyphs" textLength="98" x="262" y="78.8198">-long GeoZoneID</text><!--MD5=[403352b52504da1da942811d56b7f793]
class Recom--><rect codeLine="17" fill="#FEFECE" filter="url(#f1qwdm5i8lbdx5)" height="104.0234" id="Recom" style="stroke:#A80036;stroke-width:1.5;" width="153" x="244" y="120"/><ellipse cx="295.75" cy="136" fill="#ADD1B2" rx="11" ry="11" style="stroke:#A80036;stroke-width:1.0;"/><path d="M298.0938,131.6719 C297.1563,131.2344 296.5625,131.0938 295.6875,131.0938 C293.0625,131.0938 291.0625,133.1719 291.0625,135.8906 L291.0625,137.0156 C291.0625,139.5938 293.1719,141.4844 296.0625,141.4844 C297.2813,141.4844 298.4375,141.1875 299.1875,140.6406 C299.7656,140.2344 300.0938,139.7813 300.0938,139.3906 C300.0938,138.9375 299.7031,138.5469 299.2344,138.5469 C299.0156,138.5469 298.8125,138.625 298.625,138.8125 C298.1719,139.2969 298.1719,139.2969 297.9844,139.3906 C297.5625,139.6563 296.875,139.7813 296.1094,139.7813 C294.0625,139.7813 292.7656,138.6875 292.7656,136.9844 L292.7656,135.8906 C292.7656,134.1094 294.0156,132.7969 295.75,132.7969 C296.3281,132.7969 296.9375,132.9531 297.4063,133.2031 C297.8906,133.4844 298.0625,133.7031 298.1563,134.1094 C298.2188,134.5156 298.25,134.6406 298.3906,134.7656 C298.5313,134.9063 298.7656,135.0156 298.9844,135.0156 C299.25,135.0156 299.5156,134.875 299.6875,134.6563 C299.7969,134.5 299.8281,134.3125 299.8281,133.8906 L299.8281,132.4688 C299.8281,132.0313 299.8125,131.9063 299.7188,131.75 C299.5625,131.4844 299.2813,131.3438 298.9844,131.3438 C298.6875,131.3438 298.4844,131.4375 298.2656,131.75 L298.0938,131.6719 Z " fill="#000000"/><text fill="#000000" font-family="sans-serif" font-size="12" lengthAdjust="spacingAndGlyphs" textLength="41" x="316.25" y="140.1543">Recom</text><line style="stroke:#A80036;stroke-width:1.5;" x1="245" x2="396" y1="152" y2="152"/><text fill="#000000" font-family="sans-serif" font-size="11" lengthAdjust="spacingAndGlyphs" textLength="83" x="250" y="166.2104">-long RecomID</text><text fill="#000000" font-family="sans-serif" font-size="11" lengthAdjust="spacingAndGlyphs" textLength="98" x="250" y="179.0151">-long GeoZoneID</text><text fill="#000000" font-family="sans-serif" font-size="11" lengthAdjust="spacingAndGlyphs" textLength="141" x="250" y="191.8198">-DateTime CreationDate</text><text fill="#000000" font-family="sans-serif" font-size="11" lengthAdjust="spacingAndGlyphs" textLength="106" x="250" y="204.6245">-int ExpirationDate</text><text fill="#000000" font-family="sans-serif" font-size="11" lengthAdjust="spacingAndGlyphs" textLength="66" x="250" y="217.4292">-string Note</text><!--MD5=[c4a60b9527ef61a4e8dfb781c35ab47e]
class Outbreak--><rect codeLine="25" fill="#FEFECE" filter="url(#f1qwdm5i8lbdx5)" height="104.0234" id="Outbreak" style="stroke:#A80036;stroke-width:1.5;" width="132" x="254.5" y="259"/><ellipse cx="289.3" cy="275" fill="#ADD1B2" rx="11" ry="11" style="stroke:#A80036;stroke-width:1.0;"/><path d="M291.6438,270.6719 C290.7063,270.2344 290.1125,270.0938 289.2375,270.0938 C286.6125,270.0938 284.6125,272.1719 284.6125,274.8906 L284.6125,276.0156 C284.6125,278.5938 286.7219,280.4844 289.6125,280.4844 C290.8313,280.4844 291.9875,280.1875 292.7375,279.6406 C293.3156,279.2344 293.6438,278.7813 293.6438,278.3906 C293.6438,277.9375 293.2531,277.5469 292.7844,277.5469 C292.5656,277.5469 292.3625,277.625 292.175,277.8125 C291.7219,278.2969 291.7219,278.2969 291.5344,278.3906 C291.1125,278.6563 290.425,278.7813 289.6594,278.7813 C287.6125,278.7813 286.3156,277.6875 286.3156,275.9844 L286.3156,274.8906 C286.3156,273.1094 287.5656,271.7969 289.3,271.7969 C289.8781,271.7969 290.4875,271.9531 290.9563,272.2031 C291.4406,272.4844 291.6125,272.7031 291.7063,273.1094 C291.7688,273.5156 291.8,273.6406 291.9406,273.7656 C292.0813,273.9063 292.3156,274.0156 292.5344,274.0156 C292.8,274.0156 293.0656,273.875 293.2375,273.6563 C293.3469,273.5 293.3781,273.3125 293.3781,272.8906 L293.3781,271.4688 C293.3781,271.0313 293.3625,270.9063 293.2688,270.75 C293.1125,270.4844 292.8313,270.3438 292.5344,270.3438 C292.2375,270.3438 292.0344,270.4375 291.8156,270.75 L291.6438,270.6719 Z " fill="#000000"/><text fill="#000000" font-family="sans-serif" font-size="12" lengthAdjust="spacingAndGlyphs" textLength="56" x="307.7" y="279.1543">Outbreak</text><line style="stroke:#A80036;stroke-width:1.5;" x1="255.5" x2="385.5" y1="291" y2="291"/><text fill="#000000" font-family="sans-serif" font-size="11" lengthAdjust="spacingAndGlyphs" textLength="96" x="260.5" y="305.2104">-long OutbreakID</text><text fill="#000000" font-family="sans-serif" font-size="11" lengthAdjust="spacingAndGlyphs" textLength="72" x="260.5" y="318.0151">-long VirusID</text><text fill="#000000" font-family="sans-serif" font-size="11" lengthAdjust="spacingAndGlyphs" textLength="98" x="260.5" y="330.8198">-long GeoZoneID</text><text fill="#000000" font-family="sans-serif" font-size="11" lengthAdjust="spacingAndGlyphs" textLength="120" x="260.5" y="343.6245">-DateTime StartDate</text><text fill="#000000" font-family="sans-serif" font-size="11" lengthAdjust="spacingAndGlyphs" textLength="120" x="260.5" y="356.4292">-DateTime? EndDate</text><!--MD5=[583949b48bb58d687b700008f98c6a20]
class Virus--><rect codeLine="33" fill="#FEFECE" filter="url(#f1qwdm5i8lbdx5)" height="65.6094" id="Virus" style="stroke:#A80036;stroke-width:1.5;" width="113" x="495" y="278"/><ellipse cx="532.95" cy="294" fill="#ADD1B2" rx="11" ry="11" style="stroke:#A80036;stroke-width:1.0;"/><path d="M535.2938,289.6719 C534.3563,289.2344 533.7625,289.0938 532.8875,289.0938 C530.2625,289.0938 528.2625,291.1719 528.2625,293.8906 L528.2625,295.0156 C528.2625,297.5938 530.3719,299.4844 533.2625,299.4844 C534.4813,299.4844 535.6375,299.1875 536.3875,298.6406 C536.9656,298.2344 537.2938,297.7813 537.2938,297.3906 C537.2938,296.9375 536.9031,296.5469 536.4344,296.5469 C536.2156,296.5469 536.0125,296.625 535.825,296.8125 C535.3719,297.2969 535.3719,297.2969 535.1844,297.3906 C534.7625,297.6563 534.075,297.7813 533.3094,297.7813 C531.2625,297.7813 529.9656,296.6875 529.9656,294.9844 L529.9656,293.8906 C529.9656,292.1094 531.2156,290.7969 532.95,290.7969 C533.5281,290.7969 534.1375,290.9531 534.6063,291.2031 C535.0906,291.4844 535.2625,291.7031 535.3563,292.1094 C535.4188,292.5156 535.45,292.6406 535.5906,292.7656 C535.7313,292.9063 535.9656,293.0156 536.1844,293.0156 C536.45,293.0156 536.7156,292.875 536.8875,292.6563 C536.9969,292.5 537.0281,292.3125 537.0281,291.8906 L537.0281,290.4688 C537.0281,290.0313 537.0125,289.9063 536.9188,289.75 C536.7625,289.4844 536.4813,289.3438 536.1844,289.3438 C535.8875,289.3438 535.6844,289.4375 535.4656,289.75 L535.2938,289.6719 Z " fill="#000000"/><text fill="#000000" font-family="sans-serif" font-size="12" lengthAdjust="spacingAndGlyphs" textLength="30" x="552.05" y="298.1543">Virus</text><line style="stroke:#A80036;stroke-width:1.5;" x1="496" x2="607" y1="310" y2="310"/><text fill="#000000" font-family="sans-serif" font-size="11" lengthAdjust="spacingAndGlyphs" textLength="72" x="501" y="324.2104">-long VirusID</text><text fill="#000000" font-family="sans-serif" font-size="11" lengthAdjust="spacingAndGlyphs" textLength="101" x="501" y="337.0151">-string VirusName</text><!--MD5=[0b07100ac9b6dcca6fcc89cea1944e85]
link GeoZone to Country--><path codeLine="38" d="M146.2,136.23 C180.576,118.332 221.925,96.804 255.611,79.265 " fill="none" id="GeoZone-Country" style="stroke:#A80036;stroke-width:1.0;"/><polygon fill="#000000" points="185.4349,91.2574,176.0549,92.8277,178.7693,98.0412,185.4349,91.2574" style="stroke:#000000;stroke-width:1.0;"/><text fill="#000000" font-family="sans-serif" font-size="13" lengthAdjust="spacingAndGlyphs" textLength="23" x="190" y="98.0669">has</text><text fill="#000000" font-family="sans-serif" font-size="13" lengthAdjust="spacingAndGlyphs" textLength="8" x="153.8003" y="145.367">1</text><text fill="#000000" font-family="sans-serif" font-size="13" lengthAdjust="spacingAndGlyphs" textLength="27" x="220.8946" y="95.3309">1...*</text><!--MD5=[d94041cad978db009e10bdaa6f74568f]
link GeoZone to Recom--><path codeLine="39" d="M146.2,172 C176.663,172 212.602,172 243.832,172 " fill="none" id="GeoZone-Recom" style="stroke:#A80036;stroke-width:1.0;"/><polygon fill="#000000" points="186,163.5664,176.9549,160.6275,176.9549,166.5053,186,163.5664" style="stroke:#000000;stroke-width:1.0;"/><text fill="#000000" font-family="sans-serif" font-size="13" lengthAdjust="spacingAndGlyphs" textLength="23" x="190" y="168.0669">has</text><text fill="#000000" font-family="sans-serif" font-size="13" lengthAdjust="spacingAndGlyphs" textLength="8" x="153.8003" y="184.8258">1</text><text fill="#000000" font-family="sans-serif" font-size="13" lengthAdjust="spacingAndGlyphs" textLength="27" x="209.0832" y="184.7161">1...*</text><!--MD5=[b03bcc838a029db7d61db0c43cf28b09]
link GeoZone to Outbreak--><path codeLine="40" d="M145.554,211.089 C179.666,230.682 220.77,254.291 254.455,273.6392 " fill="none" id="GeoZone-Outbreak" style="stroke:#A80036;stroke-width:1.0;"/><polygon fill="#000000" points="185.3357,224.0567,178.9561,217.0032,176.0286,222.1002,185.3357,224.0567" style="stroke:#000000;stroke-width:1.0;"/><text fill="#000000" font-family="sans-serif" font-size="13" lengthAdjust="spacingAndGlyphs" textLength="23" x="190" y="226.0669">has</text><text fill="#000000" font-family="sans-serif" font-size="13" lengthAdjust="spacingAndGlyphs" textLength="8" x="149.1417" y="231.4295">1</text><text fill="#000000" font-family="sans-serif" font-size="13" lengthAdjust="spacingAndGlyphs" textLength="27" x="219.2519" y="282.6323">1...*</text><!--MD5=[0e150b400a5e2077fb32cbf1e73e8eb6]
link Outbreak to Virus--><path codeLine="42" d="M386.51,311 C420.625,311 461.999,311 494.654,311 " fill="none" id="Outbreak-Virus" style="stroke:#A80036;stroke-width:1.0;"/><polygon fill="#000000" points="437,302.5664,427.9549,299.6275,427.9549,305.5053,437,302.5664" style="stroke:#000000;stroke-width:1.0;"/><text fill="#000000" font-family="sans-serif" font-size="13" lengthAdjust="spacingAndGlyphs" textLength="23" x="441" y="307.0669">has</text><text fill="#000000" font-family="sans-serif" font-size="13" lengthAdjust="spacingAndGlyphs" textLength="8" x="394.6049" y="323.9404">1</text><text fill="#000000" font-family="sans-serif" font-size="13" lengthAdjust="spacingAndGlyphs" textLength="27" x="459.9599" y="323.9158">1...*</text><!--MD5=[88f9827b1af388a08d1a24c46c858bb1]
@startuml
skinparam classAttributeIconSize 0
hide methods
left to right direction

class GeoZone {
  -long GeoZoneID
  -string GeoZoneName
  -list CountryList
}

class Country {
  -long CountryID
  -string CountryName
  -long GeoZoneID
}

class Recom{
  -long RecomID
  -long GeoZoneID
  -DateTime CreationDate
  -int ExpirationDate
  -string Note
}

class Outbreak {
  -long OutbreakID
  -long VirusID
  -long GeoZoneID
  -DateTime StartDate
  -DateTime? EndDate
}

class Virus {
  -long VirusID
  -string VirusName
}

GeoZone "1" - - "1...*" Country : has >
GeoZone "1" - - "1...*" Recom : has >
GeoZone "1" - - "1...*" Outbreak : has >

Outbreak "1" - - "1...*" Virus : has >
@enduml

PlantUML version 1.2020.24(Fri Dec 18 17:00:36 UTC 2020)
(GPL source distribution)
Java Runtime: Java(TM) SE Runtime Environment
JVM: Java HotSpot(TM) 64-Bit Server VM
Default Encoding: UTF-8
Language: en
Country: US
--></g></svg>